<svg xmlns="http://www.w3.org/2000/svg" xmlns:xlink="http://www.w3.org/1999/xlink" width="16" height="15" viewBox="0 0 16 15"><defs><path id="jblna" d="M1528.8 3217v-6.25s-.337-1.319-1.6-1.25c-1.264.068-1.659.25-2.24.937V3217h-3.2v-9.893h3.2v1.456s1.043-2.028 3.2-1.875c1.973.14 3.454 1.33 3.777 3.93h.063v6.382zm-10.88-11.17c-1.06 0-1.92-.858-1.92-1.916 0-1.057.86-1.914 1.92-1.914s1.92.857 1.92 1.914c0 1.058-.86 1.915-1.92 1.915zm1.6 11.17h-3.2v-9.894h3.2z"/></defs><g><g transform="translate(-1516 -3202)"><use fill="#fff" xlink:href="#jblna"/></g></g></svg>