<svg xmlns="http://www.w3.org/2000/svg" xmlns:xlink="http://www.w3.org/1999/xlink" width="16" height="16" viewBox="0 0 16 16"><defs><path id="eydka" d="M1443.336 39.744c-1.212.202-2.637.255-5.336.255-2.7 0-4.124-.053-5.336-.255-1.697-.283-2.664-.888-2.664-1.905 0-1.342 1.728-3.215 4.13-4.299.971 1.472 2.342 2.46 3.87 2.46 1.527 0 2.899-.988 3.87-2.46 2.402 1.084 4.13 2.957 4.13 4.3 0 1.016-.967 1.621-2.664 1.904zM1438 34.666c-2.215 0-4-2.94-4-5.96 0-2.813 1.67-4.706 4-4.706s4 1.893 4 4.706c0 3.02-1.786 5.96-4 5.96z"/></defs><g><g transform="translate(-1430 -24)"><use fill="#fff" xlink:href="#eydka"/></g></g></svg>