<svg xmlns="http://www.w3.org/2000/svg" xmlns:xlink="http://www.w3.org/1999/xlink" width="16" height="14" viewBox="0 0 16 14"><defs><path id="r6bma" d="M1430.392 3204.39l1.609-.342s-1.348 1.62-1.61 1.708c-.002 0-.005-.003-.007-.002-.035.789.008 1.026.008 1.026-3.075 14.077-14.392 7.854-14.392 7.854 4.117.116 4.484-1.708 4.484-1.708-2.411-.389-2.876-2.048-2.876-2.048.82.398 1.278-.342 1.278-.342-2.602-.718-2.237-3.415-2.237-3.415.435.425 1.145.587 1.569.647-.295-.364-2.724-3.475-1.25-5.086 0 0 1.775 3.41 6.473 3.735l.314-.084a3.832 3.832 0 0 1-.075-.748c0-1.98 1.503-3.585 3.356-3.585 2.234 0 2.717 1.365 2.717 1.365l1.598-1.024s-.176 1.712-.96 2.049z"/></defs><g><g transform="translate(-1416 -3202)"><use fill="#fff" xlink:href="#r6bma"/></g></g></svg>